<svg width="20" height="19" viewBox="0 0 20 19" xmlns="http://www.w3.org/2000/svg">
    <path d="M0 8.93831C0 9.34926 0.325332 9.59756 0.727742 9.59756C0.976033 9.59756 1.17293 9.4777 1.34418 9.30645L9.70031 1.69519C9.79448 1.60102 9.89724 1.56675 10.0085 1.56675C10.1113 1.56675 10.2054 1.60102 10.3082 1.69519L18.6558 9.30645C18.8355 9.4777 19.0324 9.59756 19.2721 9.59756C19.6746 9.59756 20 9.34926 20 8.93831C20 8.68147 19.9058 8.5188 19.7431 8.37327L16.7807 5.67633V0.616436C16.7807 0.239707 16.541 0 16.1644 0H15.0428C14.6746 0 14.4177 0.239707 14.4177 0.616436V3.52737L11.0274 0.42809C10.7277 0.145534 10.3596 0.00854794 9.99996 0.00854794C9.64037 0.00854794 9.28081 0.145534 8.97257 0.42809L0.256839 8.37327C0.102758 8.5188 0 8.68147 0 8.93831ZM2.44861 16.1215C2.44861 17.3116 3.16781 18.0051 4.375 18.0051H7.84242V11.9178C7.84242 11.5239 8.10784 11.2671 8.5017 11.2671H11.5239C11.9178 11.2671 12.1746 11.5239 12.1746 11.9178V18.0051H15.6334C16.8407 18.0051 17.5514 17.3116 17.5514 16.1215V9.85439L10.2825 3.30476C10.1883 3.21913 10.0856 3.17635 9.98287 3.17635C9.88866 3.17635 9.79448 3.21913 9.69176 3.31334L2.44861 9.89721V16.1215Z" />
</svg>
