<svg width="25" height="27" viewBox="0 0 25 27" xmlns="http://www.w3.org/2000/svg">
    <path d="M14.259 6.55414C14.4082 6.55414 14.4952 6.45469 14.5201 6.31795C14.9055 4.25432 14.893 4.20457 17.0437 3.78194C17.1928 3.75706 17.2799 3.68248 17.2799 3.53328C17.2799 3.37166 17.1928 3.29708 17.0437 3.27221C14.893 2.83711 14.9055 2.79982 14.5201 0.736193C14.4952 0.599453 14.4082 0.5 14.259 0.5C14.1099 0.5 14.0352 0.599453 14.0104 0.736193C13.6125 2.79982 13.6374 2.83711 11.4743 3.27221C11.3376 3.29708 11.2381 3.37166 11.2381 3.53328C11.2381 3.68248 11.3376 3.75706 11.4743 3.78194C13.6499 4.20457 13.6125 4.25432 14.0104 6.31795C14.0352 6.45469 14.1099 6.55414 14.259 6.55414ZM20.2138 14.9579C20.4375 14.9579 20.5991 14.7963 20.624 14.5601C21.0342 11.216 21.1709 11.1663 24.5649 10.6068C24.8383 10.5571 25 10.4328 25 10.1842C25 9.94794 24.8383 9.79879 24.6145 9.7615C21.1709 9.1772 21.0342 9.15232 20.624 5.80828C20.5991 5.57203 20.4375 5.41047 20.2138 5.41047C19.9775 5.41047 19.8159 5.57203 19.7911 5.79581C19.356 9.13991 19.2565 9.1772 15.8006 9.7615C15.5768 9.79879 15.4152 9.94794 15.4152 10.1842C15.4152 10.4204 15.5768 10.5571 15.8006 10.6068C19.2565 11.1663 19.3808 11.216 19.7911 14.5849C19.8159 14.7963 19.9775 14.9579 20.2138 14.9579ZM10.8652 26.5192C15.4152 26.5192 19.0949 24.2318 20.7731 20.3408C20.9969 19.8062 20.9223 19.3959 20.6861 19.1473C20.4624 18.936 20.0894 18.8863 19.6419 19.0603C18.7096 19.4333 17.5658 19.6446 16.1362 19.6446C10.5793 19.6446 6.99897 16.1762 6.99897 10.7187C6.99897 9.21449 7.28492 7.7227 7.67026 6.93954C7.91892 6.44228 7.89404 6.01959 7.68273 5.75852C7.44653 5.48504 7.02385 5.398 6.43954 5.63419C2.62306 7.18815 0 11.1663 0 15.8156C0 21.8698 4.45049 26.5192 10.8652 26.5192ZM10.8901 24.6296C5.58181 24.6296 1.8896 20.7635 1.8896 15.6665C1.8896 12.5338 3.3441 9.77392 5.65633 8.00864C5.35803 8.81668 5.184 10.0599 5.184 11.2533C5.184 17.3696 9.41071 21.472 15.6638 21.472C16.7826 21.472 17.802 21.3353 18.3242 21.1488C16.7702 23.2995 13.9979 24.6296 10.8901 24.6296Z" fill="#FFF"/>
</svg>
