<svg width="25" height="25" viewBox="0 0 25 25" xmlns="http://www.w3.org/2000/svg">
    <path d="M13.4677 1.00232C13.4677 0.460829 13.0069 0 12.4654 0C11.924 0 11.4631 0.460829 11.4631 1.00232V3.42164C11.4631 3.96313 11.924 4.42396 12.4654 4.42396C13.0069 4.42396 13.4677 3.96313 13.4677 3.42164V1.00232ZM18.1567 5.39168C17.7765 5.7834 17.7765 6.42856 18.1567 6.80877C18.5484 7.20044 19.1821 7.21199 19.5852 6.80877L21.3018 5.09218C21.6936 4.70046 21.6936 4.0553 21.3018 3.66358C20.9216 3.28341 20.2765 3.28341 19.8848 3.66358L18.1567 5.39168ZM5.34562 6.80877C5.72579 7.20044 6.37095 7.20044 6.76266 6.80877C7.14288 6.44011 7.14288 5.77189 6.77422 5.39168L5.05762 3.66358C4.68896 3.29492 4.03224 3.28341 3.64053 3.66358C3.26036 4.04375 3.26036 4.70046 3.62902 5.08067L5.34562 6.80877ZM12.4654 6.62439C9.25114 6.62439 6.58983 9.2857 6.58983 12.5C6.58983 15.7143 9.25114 18.3871 12.4654 18.3871C15.6682 18.3871 18.3295 15.7143 18.3295 12.5C18.3295 9.2857 15.6682 6.62439 12.4654 6.62439ZM23.9285 13.5023C24.47 13.5023 24.9308 13.0415 24.9308 12.5C24.9308 11.9585 24.47 11.4977 23.9285 11.4977H21.5208C20.9793 11.4977 20.5184 11.9585 20.5184 12.5C20.5184 13.0415 20.9793 13.5023 21.5208 13.5023H23.9285ZM1.00232 11.4977C0.460829 11.4977 0 11.9585 0 12.5C0 13.0415 0.460829 13.5023 1.00232 13.5023H3.41014C3.95163 13.5023 4.41246 13.0415 4.41246 12.5C4.41246 11.9585 3.95163 11.4977 3.41014 11.4977H1.00232ZM19.5737 18.2028C19.182 17.8226 18.5484 17.8226 18.1567 18.2028C17.7765 18.5829 17.7765 19.2281 18.1567 19.6198L19.8848 21.3479C20.2765 21.7281 20.9216 21.7166 21.3018 21.3364C21.6936 20.9562 21.6936 20.311 21.3018 19.9193L19.5737 18.2028ZM3.62902 19.9078C3.23731 20.288 3.23731 20.9447 3.61752 21.3249C3.99769 21.7051 4.65435 21.7166 5.04607 21.3364L6.76266 19.6198C7.14288 19.2396 7.14288 18.5944 6.77422 18.2028C6.394 17.8226 5.73734 17.8226 5.34562 18.2028L3.62902 19.9078ZM13.4677 21.5783C13.4677 21.0369 13.0069 20.576 12.4654 20.576C11.924 20.576 11.4631 21.0369 11.4631 21.5783V23.9977C11.4631 24.5392 11.924 25 12.4654 25C13.0069 25 13.4677 24.5392 13.4677 23.9977V21.5783Z" fill="#FFF"/>
</svg>
