<svg width="58" height="61" viewBox="0 0 58 61" fill="none" xmlns="http://www.w3.org/2000/svg">
<path d="M32.7843 14.4197C33.1272 14.4197 33.3274 14.191 33.3846 13.8766C34.2707 9.13194 34.242 9.01755 39.1868 8.04583C39.5298 7.98863 39.7299 7.81716 39.7299 7.47411C39.7299 7.10252 39.5298 6.93106 39.1868 6.87386C34.242 5.87348 34.2707 5.78775 33.3846 1.04306C33.3274 0.728661 33.1272 0.5 32.7843 0.5C32.4414 0.5 32.2698 0.728661 32.2126 1.04306C31.298 5.78775 31.3552 5.87348 26.3818 6.87386C26.0674 6.93106 25.8387 7.10252 25.8387 7.47411C25.8387 7.81716 26.0674 7.98863 26.3818 8.04583C31.3838 9.01755 31.298 9.13194 32.2126 13.8766C32.2698 14.191 32.4414 14.4197 32.7843 14.4197ZM46.4755 33.7416C46.99 33.7416 47.3615 33.37 47.4186 32.827C48.3618 25.1382 48.6762 25.0238 56.4796 23.7376C57.1083 23.6233 57.48 23.3375 57.48 22.7659C57.48 22.2227 57.1083 21.8798 56.5938 21.794C48.6762 20.4506 48.3618 20.3934 47.4186 12.7048C47.3615 12.1616 46.99 11.7901 46.4755 11.7901C45.9323 11.7901 45.5608 12.1616 45.5036 12.6761C44.5032 20.3649 44.2746 20.4506 36.3286 21.794C35.8141 21.8798 35.4425 22.2227 35.4425 22.7659C35.4425 23.3089 35.8141 23.6233 36.3286 23.7376C44.2746 25.0238 44.5604 25.1382 45.5036 32.8841C45.5608 33.37 45.9323 33.7416 46.4755 33.7416ZM24.9813 60.3234C35.4425 60.3234 43.903 55.0642 47.7616 46.1179C48.2761 44.8888 48.1046 43.9455 47.5616 43.374C47.0471 42.8881 46.1896 42.7737 45.1607 43.174C43.017 44.0314 40.3873 44.5173 37.1003 44.5173C24.3238 44.5173 16.092 36.5427 16.092 23.9949C16.092 20.5364 16.7495 17.1064 17.6355 15.3058C18.2072 14.1625 18.15 13.1906 17.6641 12.5904C17.1211 11.9616 16.1492 11.7615 14.8058 12.3045C6.03093 15.8774 0 25.0238 0 35.7137C0 49.6335 10.2326 60.3234 24.9813 60.3234ZM25.0385 55.9789C12.8337 55.9789 4.34457 47.0897 4.34457 35.3708C4.34457 28.168 7.68875 21.8226 13.005 17.7639C12.3192 19.6217 11.9191 22.48 11.9191 25.224C11.9191 39.2866 21.6371 48.7189 36.0142 48.7189C38.5866 48.7189 40.9304 48.4045 42.1309 47.9757C38.5581 52.9205 32.1841 55.9789 25.0385 55.9789Z" fill="black"/>
</svg>
