<svg width="58" height="58" viewBox="0 0 58 58" fill="none" xmlns="http://www.w3.org/2000/svg">
    <path d="M31.0509 2.31094C31.0509 1.06248 29.9885 0 28.7401 0C27.4917 0 26.4292 1.06248 26.4292 2.31094V7.88887C26.4292 9.13733 27.4917 10.1998 28.7401 10.1998C29.9885 10.1998 31.0509 9.13733 31.0509 7.88887V2.31094ZM41.8617 12.431C40.9851 13.3341 40.9851 14.8216 41.8617 15.6982C42.7649 16.6012 44.2258 16.6278 45.1553 15.6982L49.1131 11.7404C50.0165 10.8373 50.0165 9.34983 49.1131 8.44669C48.2366 7.57019 46.7491 7.57019 45.846 8.44669L41.8617 12.431ZM12.3248 15.6982C13.2013 16.6012 14.6887 16.6012 15.5919 15.6982C16.4685 14.8482 16.4685 13.3076 15.6185 12.431L11.6608 8.44669C10.8108 7.5967 9.29667 7.57019 8.39354 8.44669C7.51703 9.32319 7.51703 10.8373 8.36702 11.7139L12.3248 15.6982ZM28.7401 15.2731C21.3293 15.2731 15.1934 21.4089 15.1934 28.8198C15.1934 36.2305 21.3293 42.393 28.7401 42.393C36.1243 42.393 42.2602 36.2305 42.2602 28.8198C42.2602 21.4089 36.1243 15.2731 28.7401 15.2731ZM55.1692 31.1306C56.4176 31.1306 57.48 30.0682 57.48 28.8198C57.48 27.5713 56.4176 26.5088 55.1692 26.5088H49.6179C48.3694 26.5088 47.3069 27.5713 47.3069 28.8198C47.3069 30.0682 48.3694 31.1306 49.6179 31.1306H55.1692ZM2.31094 26.5088C1.06248 26.5088 0 27.5713 0 28.8198C0 30.0682 1.06248 31.1306 2.31094 31.1306H7.86235C9.11081 31.1306 10.1733 30.0682 10.1733 28.8198C10.1733 27.5713 9.11081 26.5088 7.86235 26.5088H2.31094ZM45.1288 41.968C44.2258 41.0914 42.7649 41.0914 41.8617 41.968C40.9851 42.8445 40.9851 44.332 41.8617 45.2351L45.846 49.2194C46.7491 50.0959 48.2366 50.0694 49.1131 49.1929C50.0165 48.3163 50.0165 46.8288 49.1131 45.9257L45.1288 41.968ZM8.36702 45.8991C7.46388 46.7756 7.46388 48.2897 8.3405 49.1662C9.217 50.0429 10.731 50.0694 11.6341 49.1929L15.5919 45.2351C16.4685 44.3585 16.4685 42.871 15.6185 41.968C14.7419 41.0914 13.2279 41.0914 12.3248 41.968L8.36702 45.8991ZM31.0509 49.7506C31.0509 48.5022 29.9885 47.4398 28.7401 47.4398C27.4917 47.4398 26.4292 48.5022 26.4292 49.7506V55.3286C26.4292 56.5771 27.4917 57.6396 28.7401 57.6396C29.9885 57.6396 31.0509 56.5771 31.0509 55.3286V49.7506Z" fill="black"/>
</svg>
